<svg xmlns="http://www.w3.org/2000/svg" viewBox="0 0 24 24" fill="none" stroke="#1a1a1a" stroke-width="2" stroke-linecap="round" stroke-linejoin="round">
  <path d="M12 2C6.477 2 2 6.477 2 12c0 3.189 1.393 6.05 3.61 8.018l-.51 1.839 1.89-.497A9.957 9.957 0 0 0 12 22c5.523 0 10-4.477 10-10S17.523 2 12 2z"/>
  <path d="M16.5 14.5c-.2-.2-.5-.3-.7-.3-.2 0-.5.1-.7.3s-.5.3-.7.5-.4.4-.7.4c-.2 0-.5-.1-1-.4-.5-.3-1.2-.7-2-1.5-.8-.8-1.3-1.6-1.5-2s-.1-.5.1-.7c.1-.1.3-.2.4-.4.1-.2.2-.4.3-.5.1-.1.1-.3 0-.4-.1-.1-.7-1.6-.9-2.1-.2-.5-.5-.4-.7-.4h-.4c-.2 0-.5.1-.7.3-.2.2-.8.8-.8 2s.8 2.3 1 2.5c.2.2 1.6 2.5 3.9 3.5.7.3 1.3.5 1.8.6.5.1.9.1 1.2.1.6 0 1.2-.2 1.6-.4.4-.2.7-.6.8-.9.2-.3.3-.5.4-.7.1-.2.1-.4-.1-.5z"/>
</svg>