<svg version="1.1" id="Layer_1" xmlns="http://www.w3.org/2000/svg" xmlns:xlink="http://www.w3.org/1999/xlink" x="0px" y="0px"
	 viewBox="0 0 100 100" style="enable-background:new 0 0 100 100;" xml:space="preserve">
<style type="text/css">
	.st0{fill:#1A1A1A;}
</style>
<g>
	<path class="st0" d="M56.5,80.8c-0.6,0-1.2-0.2-1.7-0.7c-1-1-1-2.6,0-3.5l12.3-12.3c1-1,2.6-1,3.5,0c1,1,1,2.6,0,3.5L58.2,80.1
		C57.7,80.6,57.1,80.8,56.5,80.8z"/>
	<path class="st0" d="M69.9,78.2c-0.6,0-1.2-0.2-1.7-0.7L50.4,59.7c-1-1-1-2.6,0-3.5c1-1,2.6-1,3.5,0l17.8,17.8c1,1,1,2.6,0,3.5
		C71.1,77.9,70.5,78.2,69.9,78.2z"/>
	<path class="st0" d="M49.6,67.5c-0.4,0-0.7-0.1-1.1-0.2c-1.2-0.6-1.8-2-1.2-3.2l5.1-10.4c0.6-1.2,2-1.8,3.2-1.2
		c1.2,0.6,1.8,2,1.2,3.2l-5.1,10.4C51.4,67.1,50.5,67.5,49.6,67.5z"/>
	<path class="st0" d="M28.1,74.7c-0.2,0-0.5,0-0.7-0.1c-1.3-0.4-2.2-1.7-1.8-3l4.6-15.5c0.4-1.3,1.7-2.2,3-1.8
		c1.3,0.4,2.2,1.7,1.8,3l-4.6,15.5C30,74,29.1,74.7,28.1,74.7z"/>
	<path class="st0" d="M24,71.1c-1.4,0-2.5-1.1-2.5-2.5c0-1.4,1.1-2.5,2.5-2.5h10.8c1.4,0,2.5,1.1,2.5,2.5c0,1.4-1.1,2.5-2.5,2.5
		H24z"/>
	<path class="st0" d="M37.8,61.6c-0.5,0-1-0.2-1.4-0.5c-1.1-0.8-1.3-2.3-0.5-3.4l11-15.3c0.8-1.1,2.3-1.3,3.4-0.5
		c1.1,0.8,1.3,2.3,0.5,3.4l-11,15.3C39.4,61.3,38.6,61.6,37.8,61.6z"/>
	<path class="st0" d="M42.4,51.5c-0.6,0-1.2-0.2-1.7-0.7l-3.3-3.3c-1-1-1-2.6,0-3.5c1-1,2.6-1,3.5,0l3.3,3.3c1,1,1,2.6,0,3.5
		C43.6,51.3,43,51.5,42.4,51.5z"/>
	<path class="st0" d="M48.1,42.4c-2.3,0-4.1-1.8-4.1-4.1s1.8-4.1,4.1-4.1s4.1,1.8,4.1,4.1S50.4,42.4,48.1,42.4z"/>
</g>
<path class="st0" d="M22.2,80.1c-1.7,0-3.1-1.4-3.1-3.1V36.9c0-1.7,1.4-3.1,3.1-3.1s3.1,1.4,3.1,3.1v40.1
	C25.3,78.7,23.9,80.1,22.2,80.1z"/>
<path class="st0" d="M80.1,80.1H22.2c-1.7,0-3.1-1.4-3.1-3.1s1.4-3.1,3.1-3.1h57.9c1.7,0,3.1,1.4,3.1,3.1S81.8,80.1,80.1,80.1z"/>
<path class="st0" d="M80.1,33.8c-1.7,0-3.1-1.4-3.1-3.1V24c0-1.7,1.4-3.1,3.1-3.1s3.1,1.4,3.1,3.1v6.7C83.2,32.4,81.8,33.8,80.1,33.8z"/>
<path class="st0" d="M80.1,24c-1.7,0-3.1-1.4-3.1-3.1V10.7c0-1.7,1.4-3.1,3.1-3.1s3.1,1.4,3.1,3.1v10.2C83.2,22.6,81.8,24,80.1,24z"/>
<path class="st0" d="M80.1,80.1c-1.7,0-3.1-1.4-3.1-3.1V36.9c0-1.7,1.4-3.1,3.1-3.1s3.1,1.4,3.1,3.1v40.1
	C83.2,78.7,81.8,80.1,80.1,80.1z"/>
</svg>
